<?xml version="1.0" standalone="no"?>
<!DOCTYPE svg PUBLIC "-//W3C//DTD SVG 20010904//EN"
 "http://www.w3.org/TR/2001/REC-SVG-20010904/DTD/svg10.dtd">
<svg version="1.0" xmlns="http://www.w3.org/2000/svg"
 width="400.000000pt" height="509.000000pt" viewBox="0 0 400.000000 509.000000"
 preserveAspectRatio="xMidYMid meet">
<metadata>
Created by potrace 1.16, written by Peter Selinger 2001-2019
</metadata>
<g transform="translate(0.000000,509.000000) scale(0.100000,-0.100000)"
fill="#000000" stroke="none">
<path d="M1813 4715 c-18 -8 -33 -18 -33 -24 0 -5 -17 -15 -37 -21 -21 -7 -42
-16 -47 -21 -6 -5 -20 -9 -31 -9 -12 0 -32 -9 -45 -20 -13 -11 -30 -20 -39
-20 -24 0 -81 -38 -81 -54 0 -7 -13 -19 -30 -26 -16 -7 -30 -16 -30 -21 0 -5
-6 -9 -12 -9 -7 0 -23 -16 -36 -35 -13 -21 -30 -35 -42 -35 -11 0 -20 -6 -20
-14 0 -8 -19 -34 -43 -58 -34 -36 -47 -59 -62 -114 -10 -38 -21 -73 -25 -79
-4 -5 -10 -36 -14 -69 -3 -32 -11 -66 -16 -76 -13 -24 -14 -64 -7 -290 5 -159
10 -208 28 -265 29 -95 59 -207 59 -223 0 -9 -9 -7 -29 7 -16 12 -36 21 -44
21 -56 0 -104 -123 -87 -224 5 -31 12 -61 15 -66 3 -5 11 -38 16 -72 5 -35 25
-96 44 -135 19 -40 35 -79 35 -86 0 -23 33 -45 70 -49 38 -3 36 3 65 -148 9
-47 25 -109 36 -138 10 -29 19 -78 19 -108 0 -48 -5 -62 -33 -97 -49 -64 -75
-98 -102 -139 -14 -21 -42 -47 -62 -58 -21 -11 -58 -32 -83 -46 -25 -15 -85
-47 -134 -71 -60 -31 -84 -48 -75 -53 8 -5 18 -2 26 8 13 15 13 14 7 -7 -7
-28 -12 -52 -13 -68 -1 -6 -11 -13 -23 -15 -21 -3 -23 -8 -20 -55 3 -44 1 -53
-17 -63 -12 -6 -21 -17 -21 -25 0 -8 -6 -15 -13 -15 -7 0 -18 -9 -25 -21 -8
-12 -19 -18 -28 -15 -11 4 -13 2 -5 -11 7 -13 4 -22 -13 -38 -12 -11 -32 -49
-45 -85 -13 -36 -29 -68 -35 -72 -20 -14 -36 -9 -30 10 5 16 5 16 -5 0 -6 -9
-14 -38 -17 -65 -4 -26 -13 -60 -20 -75 -18 -35 -18 -92 0 -107 8 -7 18 -25
21 -41 3 -16 14 -35 23 -42 13 -11 15 -11 7 2 -6 12 -5 13 6 3 20 -20 29 -16
29 13 0 16 4 23 12 18 20 -12 58 -13 58 -1 0 9 2 9 8 1 4 -7 15 -8 27 -4 19 7
19 8 -5 18 -22 9 -70 47 -70 56 0 1 14 30 30 64 17 34 30 67 30 72 0 6 4 10
10 10 5 0 13 12 16 27 4 15 22 58 41 95 18 37 33 76 33 86 0 10 10 32 23 49
12 16 42 69 66 116 24 47 49 85 55 84 18 -3 25 -20 15 -38 -12 -23 -12 -32 1
-24 12 8 13 -7 1 -21 -11 -12 -24 -94 -14 -94 4 0 17 10 30 22 13 12 23 16 23
10 0 -7 5 -12 11 -12 6 0 9 7 5 15 -3 9 3 24 13 34 10 10 21 35 24 55 4 23 17
48 34 64 17 15 23 27 16 29 -8 3 -3 13 13 26 22 19 24 26 15 50 -7 18 -7 26
-1 22 6 -4 10 6 11 22 l1 28 11 -27 c6 -16 14 -28 19 -28 4 0 8 -7 8 -15 0 -8
-7 -15 -15 -15 -19 0 -19 -9 -1 -24 19 -15 27 -103 11 -120 -9 -8 -10 -18 -4
-27 5 -8 9 -10 9 -5 0 5 7 3 16 -5 8 -7 13 -21 11 -31 -3 -10 -1 -20 3 -23 5
-3 11 -31 15 -63 3 -31 15 -74 27 -95 11 -21 18 -41 15 -44 -3 -3 5 -15 18
-27 12 -12 29 -41 36 -65 8 -27 21 -46 34 -51 12 -5 36 -26 53 -47 30 -36 34
-23 6 22 -7 11 -15 54 -19 95 -4 41 -11 84 -15 96 -5 11 -3 28 2 38 8 14 7 17
-1 12 -6 -4 -11 -4 -11 -1 0 11 34 51 45 52 5 1 11 7 14 14 2 6 0 9 -5 6 -5
-3 -9 5 -9 17 0 14 6 22 18 22 10 0 17 -8 17 -18 0 -10 7 -18 15 -18 8 0 15
-5 15 -10 0 -7 -6 -7 -20 0 -27 14 -25 3 3 -25 34 -33 54 -61 61 -83 4 -11 23
-27 44 -35 47 -19 53 -4 23 54 -25 48 -26 59 -5 59 11 0 14 5 10 16 -8 21 3
37 17 26 7 -5 41 -19 77 -32 70 -25 206 -33 218 -13 4 6 24 9 46 7 24 -2 43 2
53 11 8 9 18 13 23 10 4 -3 14 10 21 28 7 17 17 35 22 38 5 4 1 9 -9 13 -33
10 -73 0 -94 -24 -11 -13 -20 -18 -20 -12 0 7 -7 12 -16 12 -8 0 -12 -4 -9
-10 3 -5 1 -10 -4 -10 -6 0 -11 7 -11 16 0 12 -3 14 -13 6 -9 -8 -25 -7 -57 3
-26 8 -36 14 -25 15 15 1 12 4 -10 11 -16 5 -37 6 -45 3 -8 -3 -11 -2 -7 2 4
4 -1 13 -11 21 -16 14 -16 14 2 9 16 -6 17 -4 6 9 -7 8 -20 15 -29 16 -10 0
-12 2 -3 6 6 2 10 9 6 14 -3 5 0 9 7 9 6 0 20 10 30 21 l19 22 49 -20 c27 -12
61 -19 77 -16 23 4 26 2 14 -6 -9 -7 -10 -11 -3 -11 6 0 14 4 18 9 3 6 14 8
25 6 12 -2 24 4 31 16 8 16 19 20 49 18 35 -3 43 2 94 56 43 45 56 65 54 84
-3 31 9 54 24 45 8 -5 9 -1 5 10 -4 11 -3 15 4 11 6 -4 13 2 16 14 3 12 9 21
14 21 5 0 9 6 9 14 0 7 11 21 24 30 14 8 27 25 31 36 9 27 48 23 54 -5 2 -11
8 -23 15 -27 15 -10 27 72 14 89 -7 9 -5 21 6 38 9 14 14 30 11 35 -3 6 -1 10
4 10 6 0 11 7 11 15 0 9 -9 15 -24 15 -29 0 -54 54 -35 76 6 7 8 18 4 24 -9
15 -28 1 -21 -16 6 -17 -8 -18 -36 -3 -16 9 -23 8 -29 -2 -5 -8 -9 -9 -9 -3 0
6 -15 18 -34 26 -26 13 -36 14 -46 5 -10 -10 -12 -7 -7 10 3 14 -1 24 -10 27
-22 9 -45 7 -39 -3 8 -13 -61 -30 -152 -36 -63 -5 -96 -2 -142 12 -63 18 -73
27 -40 36 21 5 23 26 5 40 -5 4 6 5 25 2 58 -9 142 -10 193 -2 56 9 88 2 81
-17 -8 -20 39 -9 65 15 26 24 36 24 61 -1 28 -28 64 -26 85 7 12 18 14 28 7
31 -7 2 -12 8 -12 13 0 6 5 7 11 3 7 -4 10 -1 7 7 -3 8 -17 14 -31 14 -15 1
-33 7 -39 14 -11 11 -9 11 11 1 17 -8 26 -9 34 -1 8 8 8 11 0 11 -6 0 -25 13
-41 30 -17 17 -38 30 -46 30 -9 0 -26 11 -38 25 -12 14 -26 25 -32 25 -6 0 -4
-5 4 -11 11 -8 12 -12 2 -16 -6 -2 -10 -9 -6 -14 3 -5 1 -9 -5 -9 -16 0 -22
18 -9 23 10 4 10 8 -1 15 -11 8 -11 10 0 15 12 4 11 7 -1 16 -13 9 -12 12 8
17 31 9 27 20 -9 28 -45 9 -46 8 -51 -18 -4 -18 1 -27 16 -34 18 -9 15 -11
-21 -11 -23 -1 -49 -4 -58 -7 -12 -5 -16 -2 -13 12 3 16 -3 19 -38 19 -28 0
-49 7 -64 20 -18 16 -36 20 -94 20 l-71 0 -3 38 c-4 43 10 67 36 62 45 -7 92
50 92 111 0 13 5 24 10 24 6 0 10 9 10 19 0 11 5 32 12 48 6 15 10 34 9 41 -1
6 3 12 9 12 7 0 10 6 8 12 -6 16 21 44 48 50 14 4 26 -1 35 -15 8 -11 31 -39
52 -61 20 -23 37 -45 37 -49 0 -5 5 -5 10 -2 6 3 10 -1 10 -9 0 -15 18 -32 26
-23 3 2 0 25 -6 51 -7 34 -7 53 1 68 13 24 0 57 -38 97 -27 28 -30 59 -7 68
18 7 35 -13 28 -32 -7 -17 15 -32 66 -44 l45 -10 -42 3 c-24 2 -43 0 -43 -4 0
-4 19 -7 41 -8 23 -1 47 -6 54 -12 7 -6 43 -12 80 -15 37 -3 72 -8 77 -11 5
-3 21 2 36 12 15 10 31 17 36 16 5 -2 6 4 3 13 -7 17 8 21 18 5 4 -6 11 -5 19
3 18 18 30 57 17 57 -5 0 -13 9 -16 20 -6 20 -55 76 -55 63 0 -3 -6 -1 -12 5
-7 5 -44 13 -83 17 -38 4 -77 9 -85 11 -8 1 -22 3 -30 4 -10 1 -9 4 5 10 11 5
63 9 115 9 71 1 101 -3 118 -15 12 -8 31 -13 41 -9 12 3 21 0 25 -11 9 -23 28
-12 32 17 3 28 -23 61 -78 102 -32 23 -39 24 -193 23 -120 -1 -159 -4 -158
-13 2 -9 -4 -10 -20 -4 -25 10 -64 -6 -40 -15 7 -3 9 -12 6 -20 -3 -7 -10 -11
-15 -8 -6 4 -8 -1 -4 -12 4 -13 -4 -30 -24 -51 -17 -18 -30 -42 -30 -55 0 -13
-7 -33 -15 -45 -8 -12 -13 -28 -10 -36 3 -7 -1 -20 -10 -27 -11 -10 -15 -10
-15 0 0 7 -7 10 -15 6 -17 -6 -17 -7 -40 75 -9 32 -27 69 -40 83 -13 14 -29
42 -36 63 -17 51 -31 65 -66 67 -16 2 -36 6 -43 11 -7 4 -34 9 -60 10 -27 2
-58 6 -70 10 -12 4 -27 1 -35 -5 -12 -10 -15 -10 -15 0 0 9 -4 9 -16 -1 -15
-12 -16 -11 -11 6 4 11 3 26 -2 34 -11 17 27 74 42 64 6 -4 7 -1 2 6 -4 7 -8
25 -9 39 -1 15 -6 37 -10 50 -5 16 -4 22 6 20 7 -2 13 3 12 10 -4 47 -4 47
-20 22 l-15 -25 7 25 c4 14 9 31 11 38 3 6 -1 12 -7 12 -9 0 -8 6 3 18 10 10
17 24 17 30 0 7 5 12 10 12 6 0 10 5 10 10 0 7 -8 6 -22 -1 -20 -11 -19 -7 7
24 17 19 38 39 49 42 15 6 16 9 5 16 -12 7 -11 9 1 9 9 0 22 9 30 20 9 12 17
16 21 9 4 -7 12 -5 22 5 8 9 22 16 29 16 7 0 32 7 56 15 24 9 49 12 55 8 7 -4
6 0 -2 10 -12 15 -11 17 7 17 12 0 23 -4 26 -9 3 -5 24 -18 47 -30 22 -12 37
-16 33 -10 -5 8 -2 10 8 6 9 -3 38 5 67 18 28 13 60 22 71 20 13 -3 18 0 14 7
-5 7 2 9 20 6 14 -3 29 -1 32 3 3 5 15 4 27 -3 12 -6 23 -11 25 -10 1 1 3 1 5
1 1 -1 19 -3 39 -4 20 -1 45 -6 55 -10 10 -5 26 -7 36 -6 9 1 17 -3 17 -9 0
-7 8 -9 19 -5 10 3 24 -1 31 -10 10 -12 10 -15 -4 -15 -20 0 -21 -14 -1 -30 8
-7 15 -18 15 -25 0 -7 7 -15 15 -19 8 -3 15 -14 15 -25 0 -32 21 -69 41 -74
26 -7 24 7 -3 28 -22 16 -22 16 5 0 15 -8 38 -20 52 -25 20 -8 23 -6 18 7 -5
13 -3 13 14 5 11 -6 23 -8 27 -5 3 3 6 1 6 -6 0 -7 5 -9 12 -5 7 4 8 3 4 -4
-4 -6 -14 -8 -24 -5 -15 6 -15 5 -3 -10 7 -9 17 -14 22 -12 4 3 2 -7 -6 -22
-8 -15 -15 -35 -15 -43 0 -9 -5 -21 -10 -26 -8 -8 -8 -19 0 -38 5 -15 8 -31 5
-35 -2 -5 6 -37 19 -73 22 -59 23 -73 15 -144 -9 -73 -10 -164 -4 -324 1 -48
6 -65 16 -65 16 0 16 -1 18 105 1 67 4 82 19 87 9 3 25 13 34 20 15 13 19 13
36 -4 19 -17 28 -62 34 -155 3 -32 13 -28 22 7 7 29 -19 172 -36 192 -14 17
-32 16 -68 -2 -27 -14 -30 -14 -30 1 0 9 11 48 25 86 14 38 25 77 25 87 0 10
7 32 15 49 9 17 20 55 25 84 5 29 17 94 26 143 9 50 21 120 27 158 6 37 14 67
19 67 4 0 5 14 2 30 -4 17 -2 30 3 30 6 0 9 16 7 35 -1 19 1 35 5 35 5 0 -2
21 -15 48 -13 26 -24 54 -24 63 0 8 -6 21 -12 28 -10 11 -10 14 0 18 19 7 14
58 -8 78 -11 10 -29 37 -41 61 -13 29 -27 44 -39 44 -32 0 -69 22 -76 44 -4
12 -34 47 -68 80 -61 59 -123 95 -162 96 -12 0 -27 7 -34 15 -7 9 -29 15 -52
15 -21 0 -51 6 -66 14 -26 14 -93 30 -172 43 -19 3 -46 14 -60 24 -21 16 -33
18 -72 11 -52 -10 -133 -1 -150 16 -15 15 -35 15 -75 -3z m-63 -1405 c11 -7 6
-10 -20 -10 -19 -1 -60 -2 -91 -3 -35 -1 -61 3 -68 11 -9 9 6 12 76 12 48 0
95 -5 103 -10z m57 -132 c30 -24 -55 -57 -147 -58 -28 0 -58 8 -79 21 l-33 20
21 20 22 20 28 -30 c42 -45 90 -41 117 10 13 26 17 28 37 18 12 -6 27 -16 34
-21z m66 5 c4 -7 14 -13 21 -13 7 0 13 -7 13 -15 0 -23 -14 -18 -55 20 -33 31
-35 33 -12 28 14 -3 29 -12 33 -20z m455 -23 c31 -42 82 -42 113 -1 19 26 25
28 45 19 31 -15 31 -42 -1 -56 -39 -18 -102 -14 -182 9 -56 17 -69 24 -60 34
13 13 35 23 53 24 5 1 20 -12 32 -29z m-1107 -30 c39 -40 38 -62 -1 -58 -17 2
-30 8 -29 12 0 5 -4 12 -9 15 -10 6 -5 61 6 61 2 0 18 -13 33 -30z m659 -23
c0 -6 -3 -7 -7 -3 -4 3 -12 -2 -17 -13 -15 -27 -105 -121 -117 -121 -5 0 -9
-5 -9 -11 0 -5 10 -3 22 5 12 9 38 16 58 16 26 0 31 -3 20 -10 -10 -6 -11 -10
-2 -10 15 0 16 -54 1 -82 -6 -11 -7 -23 -3 -27 18 -12 14 -34 -8 -55 -64 -62
-80 -85 -74 -104 5 -14 13 -18 26 -15 16 4 23 -2 30 -24 14 -38 73 -59 190
-68 46 -3 86 -8 88 -10 3 -3 0 -10 -5 -17 -6 -7 -10 -24 -9 -38 1 -22 6 -25
46 -27 25 -2 56 -6 70 -10 14 -3 31 -5 39 -4 8 1 10 -3 6 -11 -3 -7 0 -5 7 4
19 23 38 9 27 -20 -6 -16 -15 -22 -26 -19 -58 16 -78 16 -121 2 -34 -12 -63
-15 -107 -9 -84 9 -174 10 -168 2 2 -5 -3 -8 -13 -8 -15 0 -15 2 0 23 9 12 22
32 28 45 6 12 16 21 22 19 10 -3 36 16 36 26 0 3 -7 4 -16 3 -9 0 -19 5 -21
12 -3 8 1 10 13 5 12 -4 15 -3 10 6 -5 7 -14 10 -21 7 -7 -2 -17 0 -23 6 -8 8
-13 7 -18 -5 -3 -9 -14 -17 -23 -17 -10 0 -26 -6 -36 -14 -15 -10 -25 -11 -43
-3 -18 8 -26 8 -33 -4 -8 -11 -12 -11 -16 -1 -8 20 -51 14 -58 -8 -3 -11 -13
-20 -21 -20 -8 0 -14 -4 -14 -10 0 -5 -7 -10 -15 -10 -8 0 -12 6 -9 15 4 10 0
13 -15 10 -13 -2 -18 1 -15 9 6 15 -24 88 -40 98 -8 6 -7 8 2 8 7 0 10 5 7 10
-4 6 -10 8 -15 5 -4 -3 -11 2 -14 11 -3 8 -2 12 4 9 5 -3 8 4 7 15 -1 12 -8
20 -19 20 -11 0 -18 7 -18 19 0 10 -11 26 -25 35 -14 9 -23 21 -20 26 4 6 2
10 -3 10 -4 0 -19 10 -31 22 -20 18 -22 23 -9 32 20 15 31 53 18 61 -5 3 -10
14 -10 23 0 15 2 15 10 2 8 -13 10 -13 10 2 0 25 -22 27 -45 2 -15 -16 -23
-19 -30 -10 -14 16 -17 35 -10 57 6 17 8 18 22 4 12 -12 18 -13 29 -4 11 9 14
8 14 -2 1 -8 7 0 15 16 13 28 14 28 11 5 -2 -14 -1 -19 1 -12 3 7 9 9 15 6 7
-4 8 -2 4 4 -4 6 1 23 10 37 l17 26 19 -21 c25 -27 30 -25 16 5 -15 33 -6 40
32 27 88 -31 247 -23 291 15 8 7 22 13 30 13 10 1 9 4 -4 14 -16 13 -15 14 17
14 20 0 36 -5 36 -11z m-103 -3 c-3 -3 -12 -4 -19 -1 -8 3 -5 6 6 6 11 1 17
-2 13 -5z m163 -154 c0 -5 -2 -10 -4 -10 -3 0 -8 5 -11 10 -3 6 -1 10 4 10 6
0 11 -4 11 -10z m-602 -155 c-3 -3 -9 2 -12 12 -6 14 -5 15 5 6 7 -7 10 -15 7
-18z m-108 -70 c4 3 17 -3 29 -13 25 -21 19 -62 -10 -62 -23 0 -53 55 -44 78
5 12 9 13 12 4 3 -6 8 -10 13 -7z m210 -15 c0 -5 -2 -10 -4 -10 -3 0 -8 5 -11
10 -3 6 -1 10 4 10 6 0 11 -4 11 -10z m699 -173 c-2 -1 -12 -9 -21 -16 -15
-12 -18 -11 -18 3 0 10 8 16 22 16 12 0 19 -1 17 -3z m-358 -181 c-9 -11 -9
-15 1 -19 8 -4 7 -6 -4 -6 -10 -1 -22 -10 -28 -21 -14 -26 -56 -26 -70 -1 -13
25 -13 31 0 31 6 0 9 -3 8 -7 -2 -5 0 -9 5 -10 17 -6 27 -2 27 12 0 8 9 15 19
15 11 0 23 5 26 10 3 6 11 10 17 10 7 0 7 -5 -1 -14z m-151 -52 c0 -23 -1 -24
-16 -9 -9 8 -13 22 -10 31 8 22 26 7 26 -22z m17 14 c-3 -8 -6 -5 -6 6 -1 11
2 17 5 13 3 -3 4 -12 1 -19z m63 -71 c0 -4 -14 0 -30 8 -17 9 -28 20 -25 25 6
10 54 -19 55 -33z m615 19 l28 -14 -29 -4 c-20 -2 -28 -8 -26 -19 1 -9 -5 -19
-14 -23 -10 -4 -13 -13 -9 -26 4 -12 2 -20 -5 -20 -6 0 -8 -11 -5 -27 2 -16 0
-42 -6 -60 -8 -26 -17 -34 -44 -39 -22 -4 -37 -13 -41 -26 -4 -14 -11 -17 -22
-12 -10 5 -34 8 -54 8 -21 0 -38 5 -38 11 0 6 -3 6 -8 -1 -12 -18 -50 -23 -62
-9 -9 11 -17 11 -36 3 -19 -9 -27 -8 -37 2 -10 10 -9 11 2 5 9 -5 12 -3 9 6
-3 8 -10 15 -16 15 -7 1 -19 2 -27 3 -8 0 -15 9 -15 19 -1 30 -45 74 -77 76
-34 3 -53 13 -53 27 0 6 5 7 11 4 6 -4 9 -1 8 6 -6 29 31 78 64 87 17 5 34 6
37 3 3 -3 12 -7 20 -9 8 -2 37 -14 63 -28 47 -24 50 -24 63 -7 13 16 14 16 8
1 -5 -15 0 -18 29 -18 20 0 39 5 42 10 3 6 15 10 26 10 10 0 19 4 19 8 0 4 14
9 32 10 18 2 35 7 38 12 5 8 53 23 91 29 4 1 19 -5 34 -13z m-248 -42 c-3 -3
-12 -4 -19 -1 -8 3 -5 6 6 6 11 1 17 -2 13 -5z m395 -182 c-5 -1 -8 -13 -5
-25 4 -18 3 -19 -6 -7 -6 8 -8 23 -5 34 4 13 3 16 -6 11 -9 -5 -11 -4 -6 4 6
9 11 9 23 -1 8 -7 11 -14 5 -16z m-878 -173 c21 -12 36 -29 36 -40 0 -10 4
-19 10 -19 5 0 7 -6 5 -13 -3 -6 5 -17 17 -22 12 -6 24 -16 26 -24 3 -9 0 -11
-9 -7 -8 4 -3 -1 11 -11 41 -30 60 -52 60 -71 0 -22 -37 -46 -53 -34 -7 5 -20
8 -29 7 -10 -2 -20 5 -23 16 -4 11 -11 16 -17 13 -7 -4 -8 -2 -4 5 5 7 -1 20
-13 30 -15 14 -21 31 -22 67 l-2 49 -7 -40 c-7 -39 -10 -33 -16 34 -1 18 -5
44 -8 57 -8 29 -6 29 38 3z m460 -11 c-3 -4 2 -5 10 -2 8 3 17 -2 20 -14 7
-21 -50 -96 -66 -86 -4 3 -8 1 -8 -4 0 -26 -33 -19 -63 14 -17 20 -44 47 -59
62 -16 14 -28 29 -28 34 0 5 45 8 99 6 55 -1 98 -6 95 -10z m-317 -314 c-3 -3
-12 -4 -19 -1 -8 3 -5 6 6 6 11 1 17 -2 13 -5z m-17 -39 c0 -8 -4 -15 -10 -15
-5 0 -7 7 -4 15 4 8 8 15 10 15 2 0 4 -7 4 -15z m-63 -37 c-3 -8 -6 -5 -6 6
-1 11 2 17 5 13 3 -3 4 -12 1 -19z m-22 -18 c3 -5 1 -10 -4 -10 -6 0 -11 5
-11 10 0 6 2 10 4 10 3 0 8 -4 11 -10z"/>
<path d="M1441 3014 c0 -11 3 -14 6 -6 3 7 2 16 -1 19 -3 4 -6 -2 -5 -13z"/>
<path d="M1975 2541 c-3 -11 -12 -20 -18 -18 -7 1 -12 -7 -12 -18 0 -17 7 -20
44 -21 l44 0 -29 22 c-18 15 -22 22 -11 20 9 -1 20 -5 23 -9 14 -13 22 -7 17
13 -3 11 -9 20 -13 20 -5 0 -15 3 -23 6 -10 3 -18 -2 -22 -15z"/>
<path d="M2760 2875 c-16 -8 -29 -10 -36 -4 -12 10 -20 -27 -31 -146 -7 -75
14 -65 23 12 6 43 10 51 35 60 18 7 29 19 29 30 0 11 5 24 12 31 20 20 -4 32
-32 17z"/>
<path d="M2842 2850 c0 -19 2 -27 5 -17 2 9 2 25 0 35 -3 9 -5 1 -5 -18z"/>
<path d="M2210 2797 c0 -15 59 -52 68 -42 8 7 -43 55 -59 55 -5 0 -9 -6 -9
-13z"/>
<path d="M2680 2610 c0 -6 7 -10 15 -10 8 0 15 2 15 4 0 2 -7 6 -15 10 -8 3
-15 1 -15 -4z"/>
<path d="M2400 2500 c0 -5 5 -10 10 -10 6 0 10 5 10 10 0 6 -4 10 -10 10 -5 0
-10 -4 -10 -10z"/>
<path d="M2586 2314 c-4 -9 -4 -19 -1 -22 2 -3 7 3 11 12 4 9 4 19 1 22 -2 3
-7 -3 -11 -12z"/>
<path d="M2545 2260 c-3 -5 -4 -10 0 -10 3 0 1 -9 -5 -20 -6 -12 -21 -20 -36
-20 -14 0 -22 -4 -19 -10 13 -21 46 -9 65 23 11 17 20 35 20 40 0 10 -18 9
-25 -3z"/>
<path d="M2520 2074 c0 -14 -4 -23 -10 -19 -6 4 -10 -9 -11 -32 -2 -69 -4 -78
-16 -75 -7 1 -13 -7 -13 -17 0 -10 -8 -22 -17 -25 -12 -5 -14 -9 -6 -14 7 -4
9 -25 6 -54 -3 -26 -9 -45 -14 -42 -5 3 -9 -3 -9 -13 0 -10 -7 -27 -15 -37
-22 -29 -18 -42 18 -60 31 -17 31 -17 5 -13 -35 5 -36 -1 -2 -13 19 -8 24 -15
19 -28 -4 -9 -11 -38 -16 -64 -4 -27 -11 -54 -16 -60 -4 -7 -8 -15 -9 -18 0
-3 -10 -27 -22 -53 -12 -27 -22 -53 -22 -59 0 -31 -65 -196 -89 -227 -31 -40
-84 -141 -77 -148 2 -3 10 6 17 19 6 12 15 25 19 28 4 3 15 20 24 39 26 49
119 140 141 137 23 -3 55 23 49 39 -3 7 2 15 11 19 13 5 15 13 10 37 -5 21 -4
29 3 25 6 -3 13 -2 17 4 3 5 1 10 -5 10 -13 0 -3 43 11 48 5 2 9 20 9 40 0 21
7 51 16 67 9 17 18 53 20 82 2 28 9 64 15 80 11 28 11 28 20 6 4 -13 11 -23
15 -23 3 0 4 6 1 14 -3 7 1 25 8 40 12 22 12 36 0 94 -14 64 -24 125 -28 167
-1 13 3 19 13 17 12 -3 12 -1 -1 15 -8 10 -24 35 -34 56 -23 43 -35 47 -35 11z"/>
<path d="M2714 1921 c11 -11 23 -21 28 -21 14 0 -1 19 -25 31 -22 12 -22 12
-3 -10z"/>
<path d="M2810 1852 c16 -26 34 -57 40 -70 9 -21 12 -22 25 -8 8 8 15 23 15
34 0 10 3 21 6 25 9 9 74 -34 74 -49 0 -8 5 -14 11 -14 5 0 8 -4 5 -9 -10 -15
12 -61 28 -61 8 0 17 -13 21 -29 6 -30 45 -83 45 -63 0 17 32 52 41 46 5 -3 3
9 -2 26 -6 16 -15 33 -20 36 -5 3 -9 13 -8 22 0 14 2 13 9 -3 5 -11 9 -15 9
-8 1 12 56 -10 66 -28 4 -5 16 -9 28 -9 22 1 22 1 2 16 -34 26 -174 94 -280
135 -55 22 -110 44 -122 49 -21 9 -20 6 7 -38z m57 0 c7 -4 10 -17 7 -29 -5
-20 -7 -20 -23 -5 -26 25 -13 52 16 34z"/>
<path d="M2900 1759 c0 -15 -5 -19 -15 -15 -20 7 -19 0 8 -57 20 -43 25 -48
50 -44 27 4 28 2 23 -24 -6 -33 19 -49 28 -16 6 23 -20 61 -35 51 -5 -3 -9 -1
-9 5 0 5 -3 18 -6 28 -5 15 -4 15 5 3 9 -13 11 -13 11 2 0 20 -22 36 -28 20
-7 -23 -28 11 -24 40 2 15 2 28 -2 28 -3 0 -6 -9 -6 -21z"/>
<path d="M845 1757 c-10 -8 -14 -17 -8 -20 5 -3 17 3 26 14 19 22 9 25 -18 6z"/>
<path d="M2920 1750 c0 -19 3 -21 12 -12 9 9 9 15 0 24 -9 9 -12 7 -12 -12z"/>
<path d="M3125 1690 c9 -17 21 -30 28 -30 9 0 8 3 -1 9 -8 4 -13 11 -13 15 3
18 0 24 -14 30 -14 5 -13 2 0 -24z"/>
<path d="M1167 1643 c-4 -3 -7 -16 -7 -27 0 -17 -2 -18 -10 -6 -8 12 -10 11
-10 -6 0 -39 27 -36 35 3 6 36 4 48 -8 36z"/>
<path d="M2925 1610 c3 -5 8 -10 11 -10 2 0 4 5 4 10 0 6 -5 10 -11 10 -5 0
-7 -4 -4 -10z"/>
<path d="M3000 1596 c0 -7 7 -19 15 -26 12 -10 15 -10 15 4 0 9 -6 16 -12 16
-9 0 -8 4 2 10 13 8 12 10 -2 10 -10 0 -18 -6 -18 -14z"/>
<path d="M3050 1559 c0 -5 5 -7 10 -4 6 3 10 8 10 11 0 2 -4 4 -10 4 -5 0 -10
-5 -10 -11z"/>
<path d="M2985 1550 c3 -5 8 -10 11 -10 2 0 4 5 4 10 0 6 -5 10 -11 10 -5 0
-7 -4 -4 -10z"/>
<path d="M1132 1521 c-10 -29 -7 -41 10 -41 5 0 6 10 3 21 -4 13 -2 25 5 29 8
5 8 10 2 14 -6 3 -15 -7 -20 -23z"/>
<path d="M1111 1524 c0 -11 3 -14 6 -6 3 7 2 16 -1 19 -3 4 -6 -2 -5 -13z"/>
<path d="M3005 1530 c-3 -6 1 -10 9 -10 9 0 16 -8 16 -19 0 -11 5 -23 12 -27
8 -5 9 -2 5 9 -3 9 -3 18 1 21 4 3 9 -5 9 -16 1 -12 7 -24 13 -28 7 -4 8 -14
1 -31 -5 -13 -10 -17 -11 -9 0 12 -3 11 -14 -3 -11 -14 -15 -15 -19 -5 -4 9
-6 9 -6 1 -1 -6 7 -18 17 -25 13 -9 18 -27 19 -63 0 -27 5 -51 12 -53 6 -2 11
-10 11 -18 0 -9 8 -14 18 -13 32 3 36 -1 16 -16 -13 -10 -15 -17 -8 -22 6 -5
14 -21 18 -38 4 -16 18 -43 30 -60 27 -35 57 -120 50 -139 -3 -7 -16 -11 -32
-8 -19 2 -33 -2 -43 -14 -8 -11 -9 -15 -1 -10 7 4 12 2 12 -4 0 -6 5 -8 10 -5
6 3 10 2 10 -3 0 -5 20 -13 45 -17 25 -3 43 -10 40 -15 -3 -4 2 -10 10 -14 8
-3 15 -10 15 -16 0 -6 -4 -8 -10 -5 -6 4 -8 -5 -5 -22 4 -23 10 -68 14 -115 1
-5 9 -8 19 -8 9 0 13 4 7 8 -6 4 -9 51 -8 112 1 58 2 122 2 143 0 20 -12 74
-28 120 -16 45 -39 127 -50 182 -44 202 -51 225 -75 226 -11 1 -24 1 -28 0 -5
0 -8 3 -8 8 0 19 -85 38 -95 21z m115 -80 c1 11 4 9 10 -5 15 -35 12 -54 -8
-48 -14 3 -19 15 -19 51 -1 41 0 43 7 17 4 -16 8 -23 10 -15z m1 -122 c-10
-16 -10 -23 -2 -26 6 -2 8 -8 5 -14 -3 -5 2 -16 12 -23 18 -14 18 -14 1 -15
-10 0 -20 6 -23 14 -3 8 -12 12 -20 9 -8 -3 -14 0 -14 6 0 6 3 11 8 11 4 0 8
11 8 25 3 42 13 60 27 46 9 -9 8 -16 -2 -33z"/>
<path d="M1070 1473 c0 -6 -3 -18 -6 -27 -4 -11 -1 -16 10 -16 9 0 16 6 16 13
0 16 -20 46 -20 30z"/>
<path d="M1116 1453 c-6 -14 -5 -15 5 -6 7 7 10 15 7 18 -3 3 -9 -2 -12 -12z"/>
<path d="M1141 1424 c0 -11 3 -14 6 -6 3 7 2 16 -1 19 -3 4 -6 -2 -5 -13z"/>
<path d="M629 1410 c-1 -11 -2 -24 -3 -30 -1 -5 4 -11 9 -12 6 -2 11 12 12 30
1 34 -16 46 -18 12z"/>
<path d="M1084 1403 c0 -11 -5 -17 -16 -17 -10 1 -18 -5 -18 -13 0 -18 39 -8
58 16 11 14 12 13 8 -9 -3 -14 -3 -19 0 -12 3 6 11 9 17 5 7 -4 5 4 -4 17 -20
31 -48 38 -45 13z"/>
<path d="M1036 1341 c-2 -3 2 -14 9 -24 10 -14 17 -16 40 -7 24 9 26 9 16 -4
-7 -9 -21 -18 -31 -21 -26 -8 -29 -36 -8 -59 19 -21 24 -41 8 -31 -6 3 -7 -1
-4 -10 8 -20 30 -13 26 9 -2 9 4 31 12 49 15 34 31 120 18 101 -8 -12 -55 -26
-47 -14 3 4 -4 10 -15 13 -11 3 -22 2 -24 -2z"/>
<path d="M3397 1144 c-9 -10 3 -361 19 -539 8 -88 16 -171 16 -185 2 -25 14
-40 33 -40 6 0 3 5 -5 10 -10 6 -11 13 -5 17 6 5 10 19 8 33 -1 14 -4 131 -8
260 -3 129 -10 273 -17 320 -6 47 -12 94 -13 104 -2 21 -17 31 -28 20z"/>
<path d="M1090 1114 c0 -8 5 -12 10 -9 6 4 8 11 5 16 -9 14 -15 11 -15 -7z"/>
<path d="M1208 1020 c-25 -5 -73 -16 -105 -26 -32 -9 -68 -16 -80 -15 -15 2
-23 -3 -23 -13 0 -9 8 -16 18 -17 9 0 26 -3 37 -6 11 -2 32 -7 47 -10 15 -3
26 -8 24 -12 -3 -4 4 -8 15 -9 10 -1 28 -3 39 -4 12 -1 18 -8 16 -15 -3 -7 0
-13 7 -13 7 0 23 -9 35 -20 12 -11 26 -20 32 -20 5 0 10 -4 10 -8 0 -5 25 -8
55 -8 30 1 56 -2 58 -7 1 -4 13 -9 26 -12 12 -2 28 -8 35 -13 6 -5 21 -8 34
-6 16 3 21 0 16 -8 -4 -7 -3 -8 5 -4 23 15 59 -4 82 -41 13 -21 34 -49 46 -63
13 -14 23 -33 23 -42 0 -10 9 -27 20 -38 11 -11 20 -24 20 -30 0 -5 3 -10 8
-10 4 0 13 -12 20 -27 7 -16 37 -48 67 -73 59 -47 65 -66 41 -116 -20 -40 -26
-164 -7 -164 4 0 11 30 14 67 3 37 10 69 16 71 6 2 11 10 11 18 0 8 4 22 9 32
18 34 41 90 41 101 0 14 16 14 41 1 12 -7 19 -7 19 -1 0 5 -10 13 -22 17 -21
6 -21 7 -2 21 10 7 19 18 19 23 0 4 4 12 9 17 5 5 6 2 1 -6 -5 -9 -3 -12 6 -9
8 3 15 14 17 26 2 12 8 20 13 17 5 -4 9 -2 9 4 0 6 7 8 15 5 8 -3 14 -9 13
-12 -5 -38 4 -132 12 -127 6 3 10 17 10 30 0 41 19 68 81 115 39 29 61 54 65
73 4 15 11 27 15 27 14 0 28 45 22 68 -4 17 -9 19 -34 12 -16 -5 -29 -6 -29
-3 0 3 -8 0 -17 -7 -10 -7 0 3 22 23 22 20 36 36 30 37 -7 0 -7 3 0 8 6 4 21
20 35 36 l25 28 -42 -21 c-23 -12 -55 -33 -71 -49 -16 -15 -38 -34 -48 -43
-11 -9 -24 -24 -30 -35 -10 -17 -11 -17 -16 4 -4 15 -2 22 8 22 20 0 17 14 -5
34 -19 17 -21 17 -43 -4 -29 -27 -127 -90 -140 -90 -5 0 -18 -10 -27 -22 l-18
-21 -39 35 c-21 19 -49 40 -62 47 -12 7 -20 16 -17 21 3 5 1 11 -5 15 -5 3
-10 1 -10 -5 0 -6 -5 -8 -10 -5 -6 4 -8 9 -6 13 2 4 -24 8 -57 9 -60 2 -90 8
-188 38 -109 35 -119 42 -119 86 0 22 -9 58 -20 79 -22 44 -29 45 -122 30z
m827 -270 c3 -5 1 -10 -4 -10 -6 0 -11 5 -11 10 0 6 2 10 4 10 3 0 8 -4 11
-10z m-340 -40 c44 -35 46 -36 38 -12 -3 9 7 -1 23 -23 15 -22 31 -42 35 -45
27 -19 89 -194 63 -177 -5 3 -32 38 -59 79 -28 40 -68 96 -90 123 -63 78 -68
85 -58 85 6 0 27 -13 48 -30z m340 -21 c-5 -14 -2 -17 9 -13 9 3 14 10 11 14
-8 13 16 23 27 12 7 -7 4 -16 -8 -28 -25 -25 -49 -24 -49 1 -1 11 -4 26 -8 32
-6 9 -3 11 8 7 10 -4 13 -13 10 -25z m-193 -66 c22 -20 23 -33 2 -33 -8 0 -12
5 -9 10 3 6 2 10 -3 10 -6 0 -12 7 -16 15 -7 20 3 19 26 -2z"/>
<path d="M2628 984 c-13 -12 5 -34 28 -34 28 0 29 -7 11 -75 -11 -42 -14 -90
-8 -129 0 -4 10 -6 21 -3 11 3 20 0 20 -6 0 -19 30 17 36 44 4 13 8 46 9 73 2
27 9 52 15 56 7 4 9 13 6 19 -8 12 0 14 59 11 27 -1 46 -8 58 -22 9 -11 17
-16 17 -12 0 5 28 10 62 11 48 2 64 -2 74 -15 12 -16 13 -15 14 6 0 12 -5 22
-11 22 -5 0 -8 4 -5 9 3 5 -4 9 -17 9 -71 2 -170 11 -222 20 -93 17 -160 23
-167 16z"/>
<path d="M916 965 c-3 -9 0 -15 9 -15 8 0 15 7 15 15 0 8 -4 15 -9 15 -5 0
-11 -7 -15 -15z"/>
<path d="M2325 929 c-5 -5 -19 -16 -30 -24 -19 -13 -19 -14 5 -13 30 2 50 15
50 34 0 16 -11 17 -25 3z"/>
<path d="M1550 911 c0 -5 7 -11 15 -15 8 -3 15 -1 15 3 0 5 -7 11 -15 15 -8 3
-15 1 -15 -3z"/>
<path d="M1550 875 c0 -8 4 -15 10 -15 5 0 7 7 4 15 -4 8 -8 15 -10 15 -2 0
-4 -7 -4 -15z"/>
<path d="M1600 879 c0 -9 7 -22 15 -29 19 -16 19 0 0 26 -12 16 -14 16 -15 3z"/>
<path d="M3717 794 c-20 -75 -25 -136 -11 -141 12 -4 40 163 32 188 -2 7 -12
-14 -21 -47z"/>
<path d="M2095 821 c-3 -5 -1 -12 5 -16 5 -3 10 1 10 9 0 18 -6 21 -15 7z"/>
<path d="M3060 816 c0 -8 4 -17 9 -20 5 -4 7 3 4 14 -6 23 -13 26 -13 6z"/>
<path d="M3860 768 c-16 -35 -45 -90 -65 -123 -19 -33 -40 -72 -46 -87 -6 -16
-15 -28 -20 -28 -16 0 -24 5 -21 13 1 4 -3 7 -8 7 -5 0 -10 5 -10 11 0 5 5 7
10 4 6 -3 10 3 10 14 0 12 -6 21 -12 21 -16 0 -40 -49 -31 -64 3 -6 2 -7 -3
-3 -11 11 -13 57 -2 57 10 0 6 23 -6 31 -5 4 -5 13 -1 20 13 21 12 78 -1 83
-7 3 -13 -3 -13 -12 1 -17 -18 -93 -28 -122 -4 -8 -5 -19 -4 -23 0 -4 -11 -20
-25 -35 -15 -15 -24 -22 -21 -17 3 6 2 17 -4 25 -7 13 -9 12 -9 -2 0 -10 -6
-18 -14 -18 -15 0 -22 24 -30 94 -5 41 -15 60 -16 30 0 -11 1 -57 2 -104 3
-108 3 -256 -1 -340 -1 -36 0 -78 4 -95 7 -28 6 -29 -7 -11 -11 13 -17 16 -22
7 -4 -6 -12 -8 -18 -5 -6 4 -8 2 -5 -3 4 -6 20 -13 36 -16 23 -5 30 -13 35
-42 l7 -35 94 0 95 0 0 30 c0 28 31 73 44 64 3 -2 4 -1 1 2 -2 4 2 19 10 34 8
15 12 30 9 33 -3 2 3 20 14 38 31 57 80 209 68 209 -3 0 -19 -27 -37 -59 -36
-68 -69 -105 -69 -78 0 11 -5 14 -17 10 -12 -5 -15 -2 -10 10 4 10 0 18 -12
22 -22 7 -21 33 2 65 9 14 17 30 17 36 0 11 31 85 70 169 10 22 22 52 25 68 4
15 11 27 16 27 5 0 9 9 9 20 0 11 4 20 8 20 8 0 34 64 32 76 -1 4 4 10 10 14
9 5 9 9 1 14 -7 5 -22 -16 -41 -56z m-220 -383 c0 -8 -7 -15 -15 -15 -18 0
-19 -12 -4 -27 7 -7 6 -12 -3 -16 -19 -7 -17 34 2 55 19 21 20 22 20 3z m66
-97 c-7 -34 -7 -34 -15 -13 -9 22 -5 35 10 35 5 0 7 -10 5 -22z"/>
<path d="M2427 777 c-22 -7 -35 -15 -31 -19 4 -5 0 -8 -9 -8 -21 0 -22 -14 -2
-34 31 -31 121 11 113 53 -4 20 -24 22 -71 8z"/>
<path d="M3129 778 c-7 -25 -7 -48 1 -48 6 0 10 11 10 25 0 20 -7 35 -11 23z"/>
<path d="M3493 685 c0 -8 4 -12 9 -9 5 3 6 10 3 15 -9 13 -12 11 -12 -6z"/>
<path d="M3150 639 c0 -5 5 -7 10 -4 6 3 10 8 10 11 0 2 -4 4 -10 4 -5 0 -10
-5 -10 -11z"/>
<path d="M3160 609 c0 -5 5 -7 10 -4 6 3 10 8 10 11 0 2 -4 4 -10 4 -5 0 -10
-5 -10 -11z"/>
<path d="M552 550 c0 -14 2 -19 5 -12 2 6 2 18 0 25 -3 6 -5 1 -5 -13z"/>
<path d="M550 500 c0 -19 3 -21 12 -12 9 9 9 15 0 24 -9 9 -12 7 -12 -12z"/>
<path d="M3210 499 c0 -5 -4 -8 -9 -5 -13 9 14 -63 33 -85 9 -11 16 -26 16
-34 0 -7 5 -17 10 -20 16 -10 12 19 -10 66 -11 24 -20 54 -20 67 0 12 -4 22
-10 22 -5 0 -10 -5 -10 -11z"/>
<path d="M257 465 c-11 -26 -8 -55 5 -55 6 0 8 -3 5 -6 -3 -4 -2 -14 3 -24 13
-25 21 -72 14 -93 -5 -17 -7 -16 -25 4 -10 12 -19 28 -19 36 0 8 -5 11 -11 8
-6 -4 -9 0 -7 11 2 13 -2 18 -14 16 -9 -1 -26 11 -38 28 -12 17 -24 29 -27 27
-4 -5 28 -52 87 -129 24 -32 33 -65 19 -73 -5 -4 -9 -15 -9 -26 0 -13 -4 -18
-12 -13 -7 4 -5 -2 5 -13 12 -13 17 -37 17 -75 l0 -56 35 -4 c52 -6 67 6 59
50 -4 20 -10 42 -14 47 -11 14 -24 109 -34 256 -4 57 -29 111 -39 84z"/>
<path d="M1997 463 c-10 -9 -9 -33 1 -33 4 0 8 9 8 20 0 23 0 22 -9 13z"/>
<path d="M3859 439 c-8 -17 -8 -20 2 -17 7 2 13 12 15 21 3 23 -3 21 -17 -4z"/>
<path d="M2061 404 c0 -11 3 -14 6 -6 3 7 2 16 -1 19 -3 4 -6 -2 -5 -13z"/>
<path d="M3307 323 c-11 -3 -16 -11 -13 -21 3 -9 9 -36 15 -60 9 -43 75 -129
86 -112 3 5 1 11 -5 15 -5 3 -10 13 -10 22 0 8 -9 27 -19 42 -18 24 -38 95
-33 114 1 4 1 6 0 6 -2 -1 -11 -3 -21 -6z"/>
<path d="M2073 255 c0 -22 2 -30 4 -17 2 12 2 30 0 40 -3 9 -5 -1 -4 -23z"/>
<path d="M461 208 c-10 -37 -15 -105 -11 -159 2 -19 50 -30 94 -22 l28 6 -7
61 c-3 33 -7 73 -7 88 0 15 -4 25 -9 22 -5 -3 -9 0 -9 7 0 9 -4 8 -15 -1 -12
-10 -17 -7 -26 14 -17 36 -25 33 -38 -16z"/>
<path d="M3407 167 c3 -15 9 -24 14 -21 5 3 9 1 9 -4 0 -6 7 -12 15 -16 11 -4
14 1 13 18 -1 15 -8 23 -18 21 -8 -1 -20 5 -27 14 -9 13 -10 11 -6 -12z"/>
<path d="M150 98 c0 -6 3 -8 7 -4 4 4 12 -8 19 -26 7 -22 18 -34 32 -36 30 -5
28 6 -13 44 -37 37 -45 41 -45 22z"/>
</g>
</svg>
